# xmcd
#
# Track frame offsets: 
#        150
#        12840
#        27522
#        40765
#        52245
#        66692
#        79812
#        94582
#        109002
#        122465
#        135912
#        148537
#        160960
#        174420
#        190112
#        202600
#        216427
#        229070
#
# Disc length: 3245 seconds
#
# Revision: 6
# Processed by: cddbd v1.5.1PL0 Copyright (c) Steve Scherf et al.
# Submitted via: ExactAudioCopy v0.95a4
#
DISCID=f40cab12
DTITLE=Blues Artists - Beauty Of The Blues: Roots N' Blues Sampler
DYEAR=1991
DGENRE=Blues
TTITLE0=Robert Johnson - Traveling Riverside Blues
TTITLE1=Blind Willie McTell as Blind Sammie - Southern Can Is Mine
TTITLE2=Amedee Breaux - Vas Y Carrement (Step It Fast)
TTITLE3=Buddy Woods and the Wampus Cats - Don't Sell It (Don't Give It A
TTITLE3=way)
TTITLE4=Willie Smith - Homeless Blues
TTITLE5=Big Three Trio - Signifying Monkey
TTITLE6=Lonnie Johnson - No More Troubles Now
TTITLE7=Big Bill Broonzy - Horny Frog
TTITLE8=Hunter and Jenkins - Lollypop
TTITLE9=Lonnie Johnson and Eddie Lang - Hot Fingers
TTITLE10=Blind Boy Fuller - You've Got Something There
TTITLE11=Memphis Minnie - I Hate To See The Sun Go Down
TTITLE12=Arizona Dranes - God's Got A Crown
TTITLE13=Bessie Smith - Tain't Nobody's Bizness If I Do
TTITLE14=Big Joe and His Washboard Band - If You Take Me Back
TTITLE15=Leadbelly - You Don't Know My Mind
TTITLE16=Jazz Gillum as Bill McKinley - Is That A Monkey You Got?
TTITLE17=Bessie Smith - St. Louis Blues
EXTD=YEAR: 1991
EXTT0=
EXTT1=
EXTT2=
EXTT3=
EXTT4=
EXTT5=
EXTT6=
EXTT7=
EXTT8=
EXTT9=
EXTT10=
EXTT11=
EXTT12=
EXTT13=
EXTT14=
EXTT15=
EXTT16=
EXTT17=
PLAYORDER=
